/* XPM */
static char *result[] = {
/* columns rows colors chars-per-pixel */
"32 32 6 1 ",
"  c #3E2731",
". c #733E39",
"X c #262B44",
"o c #3A4466",
"O c #5A6988",
"+ c #8B9BB4",
/* pixels */
"XooOOoOOOOOOOOOOXoOooOOOOOOOOOOO",
"XXOO O OOoXXoXX+XXo  XXoX   XXX+",
"XOX OXOX+XXXXXX+XX XXXXXoX OXXXO",
"XXO XoXX.XXXXXo+XXXXOOX  XOXXXO+",
"XXOXoXX+XoXXXoXOXXXOOX XOOXXXXO+",
"XXXOXX.XXXXooXXOXXXX X+OXXXXXo++",
"XXoXOXXXOXXXX+O+XXXXX+XXXXXXo+X+",
"XXXXXXXXXOO+XXXOXXo XXXXXOXX+X O",
"XoXXXXXXXXOXXXX+XXXoXXXoXoooO  +",
"XXXXXoXXXXOXXXX+XXXXooXXXoX.OXo+",
"XXXXoooXXoXOXXoOXXXXXoXXXX.OooX+",
"XXXXoXOXXXXXXXo+XXXXXXoOXoOooX +",
"XXXoo+XXXXXoooOOXXXXXoOXo..oXXo+",
"XXoo+XXXXXXoooo+XXX+oo .oooXooX+",
"XXXoXXXo  o ooo+XXXXX  oo XoXoX+",
"XXXXXXXXXXXXXXXXXXXXXXXXXXXXXXXX",
"ooOOOOOOOOOOOOO+XOooOOOOOOOOOOOO",
"XXXXoXX oXOOOXo+XXXXXo X  OoXoX+",
"Xoo  oXXoXX XO+OXXXXXXXXX oooXXO",
"XXXXooXOXXXXXooOXXXXoX  XOoXXXo+",
"XoXoXXOXXXXXoXX+XXXoXXoX XXoXoXO",
"XoOooOooXXXoOXXOXXXXXXXXXooXoXXO",
"XXXOo+ooOXoOXXX+XXXXXXXXooo+XoX+",
"XoX oooOXX+XXXOOXXooXXOXXooXoX +",
"Xo XoOOoXXOXXOo+XXXXXXXoo+oXXX O",
"Xo  oOoo++XXooX+XXXXXXXXXXXXX X+",
"X o o+O+ooOOXoX+XXXXXXooXXXOXX +",
"X XX+OOooOoXoXX+XXXXXooooXXXOXo+",
"XXX+OoOoOoooXoX+XXXXX+XoXX.X OX+",
"XX+OoOooOooXoXoOXXXXXXXoo   oXO+",
"XXOOOoOooOoooooOXXXXXXXXXXXXXXX+",
"XXXXXXXXXXXXX XXXXXXXXXXXXXXXXXX"
};
