/* XPM */
static char *result[] = {
/* columns rows colors chars-per-pixel */
"32 32 6 1 ",
"  c #3E2731",
". c #733E39",
"X c #262B44",
"o c #3A4466",
"O c #5A6988",
"+ c #8B9BB4",
/* pixels */
"XooOXXXXOOXOXoXoXX  XXoX    XXXX",
"ooOX OXOOoXXoXXXoo  XoXoX   XXXX",
"XOX .XOX+XXXXXXX  oXoXXXoX OXXXO",
"oXO XoXX.XXXXXo XXXoOOX  XOXXXOX",
"XXOXoXX+XoXXXoX XXOOX  XOOXXXXOX",
"XXXOXX.XXXXooXXXOXX X +OXXXXXo+X",
"XXoXOXXXOXXXX+O+XXXX +XXXXXXo+X ",
"XXXXXXXXXOO+XXXXXo  XXXXXOXX+X  ",
"XoXXXXXXXXOXXXXX XooXXXoXoooO  X",
"XXXXXoXXXXOXXXX    XooXXXoX.OXoo",
"XXXXoooXXoXOXXo . XXOoXXXX.OooXX",
"XXXXoXOXXXXXXXo. XXXXXoOXoOooX o",
"XXXoo+XXXXXoooOo XXOXoOXo..oXXo ",
"XXoo+XXXXXXooooOoX+ooO .oooXooXX",
"XXXoXXXo  o oooXooXXX  oo XoXoXX",
"XXoXXXOOXoXoXoXooOoX  .oXXXooXXX",
"XoXXXoXXOOXX XXoO X OXoXXXoOoXoo",
"XXXXoXX oXOOOXo+o XXXo X  OoXoXX",
"Xoo  oXXoXX XO+oXXXX.XXXX oooXXX",
"oXXXooXOXXXXXooOX XoX   XOoXXXoX",
"OoXoXXOXXXXXoXXXXXXX XoX XXoXoXX",
"XoOooOooXXXoOXXXXXX XXXXXooXXXXX",
"XXXOo+ooOXoOXXXOoXXXXXXXooo+XoXX",
"XoX oooOXX+XXXOoooooXXOXXooXoX X",
"oo XoOOoXXOXXOoXooX XXXoo+oXXX X",
"Xo  oOoo++XXooXXXoXXXXXXXXXXX XX",
"o o o+O+ooOOXoXXoX XXXooXXXOXX o",
"  XX+OXXXXoXoXXXo XXXooooXXXOXoX",
"oXXOXXXX  XoXoX oXoXX+XoXX.X OXX",
"XXOXXXX  XoXoXooooXX+XXoo   oXOO",
"XXXXXX.ooOooooo oXXXXoXX .  XXXX",
"XOXXOOoOOooXo o XXo+oXX    XXXXX"
};
